<svg width="128" height="128" viewBox="0 0 128 128" fill="none" xmlns="http://www.w3.org/2000/svg">
<path d="M70.8515 6.49999C63.036 6.46899 54.044 10.0435 49 12.7032C45.4533 14.5732 33.019 22.0152 22.3515 24.0782C8.58901 26.739 0.632005 39.9857 8.70301 46.6172C22.122 57.6422 22.5863 71.9262 12.664 82.4137C1.706 93.9962 12.954 110.705 28.625 108.82C44.296 106.935 50.9043 108.956 58.8825 116.93C69.2345 127.275 91.7468 123.119 97.2813 108.781C99.85 102.128 103.357 94.6882 111.93 91.6405C122.009 88.0585 125.014 76.7972 118.484 68.9842C113.64 63.1885 113.082 57.1882 119.703 45.1172C125.142 35.2012 120.867 24.1605 105.719 25.0072C94.468 25.636 89.6123 18.1432 81.4295 10.1637C78.7165 7.51849 74.945 6.51649 70.8513 6.49999H70.8515ZM65.7735 25.547C87.7715 25.547 105.656 43.424 105.656 65.422C105.656 87.4205 87.7715 105.304 65.7735 105.304C43.7755 105.304 25.891 87.4205 25.891 65.422C25.891 43.4232 43.7755 25.547 65.7735 25.547ZM65.7735 30.2187C46.3005 30.2187 30.5703 45.9482 30.5703 65.422C30.5703 84.8957 46.3008 100.633 65.7738 100.633C85.2463 100.633 100.985 84.8957 100.985 65.4222C100.985 45.9492 85.2465 30.219 65.7738 30.219L65.7735 30.2187ZM63.4375 35.0157H68.1095V38.1562L76.164 40.6012L68.164 43.0312H67.969V67.3987H63.4375V43.1325L55.1015 40.6015L63.4375 38.0702V35.0157ZM50.4688 45.1015C52.9418 45.0957 55.6463 45.6715 58.547 46.8905V52.039C54.812 50.1185 51.7303 49.5782 49.3828 49.828C46.5803 50.1265 44.7088 51.4562 43.5158 53.3592C41.1808 57.0847 41.7393 63.261 46.9925 67.3985H40.5783C36.8443 62.171 36.594 55.611 39.5625 50.875C41.4633 47.8425 44.7625 45.627 48.8908 45.1875C49.4068 45.1325 49.9308 45.1025 50.4688 45.1015ZM81.0783 45.1015C81.6165 45.1027 82.1483 45.1325 82.664 45.1875C86.7923 45.627 90.0915 47.8425 91.9923 50.875C94.9603 55.611 94.7103 62.1707 90.9763 67.3985H84.555C89.8075 63.261 90.3663 57.0847 88.0313 53.3595C86.8388 51.4562 84.9668 50.1265 82.1638 49.8282C79.7413 49.5702 76.5393 50.1517 72.6408 52.2265V47.039C75.677 45.712 78.5015 45.0955 81.0783 45.1015ZM63.2188 49.3202C63.2318 49.3284 63.2448 49.3363 63.2578 49.344L63.219 49.4065V49.3205L63.2188 49.3202ZM42.828 72.0702H88.7188V76.6802H80.1488V81.1327H88.7188V85.8052H42.828V81.1327H51.9455V76.6802H42.828V72.0702ZM56.6173 76.6802V81.1327H63.4373V76.6802H56.6173ZM68.1093 76.6802V81.1327H75.4763V76.6802H68.1088H68.1093ZM65.82 89.1877C67.73 89.1877 69.2813 90.7387 69.2813 92.6487C69.2813 94.5587 67.7303 96.1097 65.8203 96.1097C63.9103 96.1097 62.3598 94.5587 62.3598 92.6487C62.3598 90.7387 63.9105 89.1877 65.8205 89.1877H65.82ZM114.25 102.625C112.448 102.683 110.545 103.28 108.875 104.547C100.365 111.003 106.405 123.294 116.86 114.656C124.933 107.987 120.137 102.434 114.25 102.625Z" fill="#910000"/>
</svg>
